<svg id="svg" version="1.1" xmlns="http://www.w3.org/2000/svg" xmlns:xlink="http://www.w3.org/1999/xlink" width="400" height="373.62637362637366" viewBox="0, 0, 400,373.62637362637366"><g id="svgg"><path id="path0" d="M180.561 0.503 C 180.561 1.892,179.267 2.275,173.302 2.650 C 167.595 3.009,165.607 3.372,165.607 4.058 C 165.607 4.518,164.139 5.061,160.374 5.993 C 151.154 8.275,132.552 14.177,125.047 17.201 C 122.579 18.195,119.047 19.588,117.196 20.295 C 112.547 22.073,106.044 25.385,100.935 28.579 C 98.570 30.057,95.037 32.208,93.084 33.359 C 82.766 39.438,76.000 45.043,61.647 59.400 C 41.705 79.349,29.060 97.601,20.831 118.318 C 18.060 125.293,11.659 145.581,11.042 149.346 C 10.705 151.402,10.176 154.072,9.866 155.279 C 9.556 156.486,9.137 158.925,8.936 160.698 C 8.734 162.472,8.071 165.855,7.462 168.215 L 6.355 172.507 6.355 186.976 L 6.355 201.445 7.449 205.686 C 8.050 208.018,8.656 211.016,8.795 212.347 C 8.933 213.677,9.436 216.533,9.911 218.692 C 10.387 220.850,10.980 223.879,11.229 225.421 C 11.478 226.963,12.262 230.075,12.970 232.336 C 13.678 234.598,14.750 238.275,15.351 240.508 C 18.575 252.486,27.408 270.979,35.997 283.738 C 47.981 301.539,66.393 321.261,81.583 332.566 C 91.350 339.835,108.644 350.163,115.514 352.829 C 116.645 353.268,119.887 354.559,122.719 355.698 C 131.604 359.272,149.658 365.081,160.000 367.695 C 164.071 368.723,165.607 369.293,165.607 369.774 C 165.607 370.459,167.595 370.823,173.302 371.182 C 179.267 371.557,180.561 371.940,180.561 373.329 C 180.561 373.744,184.147 373.832,201.121 373.832 C 218.095 373.832,221.682 373.744,221.682 373.329 C 221.682 372.062,223.012 371.599,227.843 371.187 C 232.631 370.777,234.393 370.401,234.393 369.789 C 234.393 369.294,235.784 368.765,239.454 367.864 C 241.296 367.411,244.065 366.651,245.607 366.173 C 247.150 365.696,251.432 364.525,255.124 363.571 C 258.816 362.617,262.854 361.408,264.096 360.884 C 265.339 360.361,269.702 358.759,273.793 357.324 C 289.702 351.746,316.604 335.905,326.729 326.154 C 329.093 323.877,332.336 320.957,333.935 319.667 C 335.533 318.376,337.796 316.115,338.963 314.641 C 340.130 313.168,343.874 309.099,347.284 305.600 C 361.065 291.456,372.334 272.952,381.997 248.598 C 386.117 238.214,389.116 226.450,390.906 213.645 C 391.222 211.383,391.926 208.019,392.469 206.168 C 393.456 202.809,393.458 202.778,393.567 187.730 L 393.677 172.656 392.553 168.280 C 391.934 165.873,391.264 162.456,391.063 160.688 C 390.862 158.920,390.445 156.486,390.136 155.279 C 389.827 154.072,389.301 151.486,388.967 149.533 C 387.963 143.668,385.609 134.643,383.995 130.467 C 383.160 128.308,381.703 124.523,380.756 122.056 C 375.914 109.441,365.276 90.530,357.518 80.748 C 356.295 79.206,354.303 76.598,353.092 74.953 C 351.880 73.308,348.776 69.774,346.192 67.098 C 343.609 64.423,340.399 60.893,339.058 59.254 C 337.718 57.614,335.279 55.200,333.638 53.887 C 331.997 52.575,329.474 50.386,328.031 49.022 C 323.528 44.764,311.313 35.826,305.234 32.340 C 303.178 31.161,299.813 29.152,297.757 27.876 C 288.709 22.258,266.220 13.244,251.118 9.181 C 237.306 5.466,234.393 4.574,234.393 4.063 C 234.393 3.372,232.418 3.010,226.698 2.650 C 220.733 2.275,219.439 1.892,219.439 0.503 C 219.439 0.088,216.035 0.000,200.000 0.000 C 183.965 0.000,180.561 0.088,180.561 0.503 M220.187 9.664 C 221.935 10.092,225.467 10.623,228.037 10.845 C 230.607 11.067,234.140 11.574,235.888 11.973 C 237.636 12.371,240.234 12.877,241.661 13.096 C 247.699 14.025,260.343 17.604,263.711 19.337 C 264.312 19.647,267.088 20.791,269.879 21.880 C 286.908 28.524,287.653 28.873,297.757 34.932 C 313.858 44.587,319.260 48.919,335.734 65.390 L 349.412 79.065 356.849 90.280 C 366.829 105.332,371.596 114.737,377.783 131.589 C 379.526 136.334,384.135 154.831,384.647 159.130 C 384.871 161.016,385.474 164.580,385.985 167.050 C 387.420 173.973,387.414 199.885,385.977 206.822 C 385.461 209.314,384.868 212.856,384.660 214.694 C 382.882 230.393,372.289 259.363,362.696 274.766 C 361.479 276.720,359.796 279.507,358.956 280.960 C 356.300 285.556,348.611 295.465,344.284 299.869 C 341.991 302.203,338.827 305.693,337.254 307.624 C 335.680 309.556,334.224 311.329,334.019 311.566 C 333.813 311.802,332.215 313.154,330.467 314.569 C 328.720 315.984,326.110 318.248,324.668 319.599 C 321.268 322.785,308.504 332.336,303.855 335.173 C 288.173 344.743,287.911 344.884,280.678 347.604 C 278.557 348.402,275.084 349.928,272.959 350.995 C 263.230 355.882,238.251 362.448,226.729 363.146 C 224.879 363.258,221.766 363.729,219.813 364.192 C 214.447 365.464,182.564 365.497,177.570 364.235 C 175.822 363.794,173.383 363.324,172.150 363.191 C 158.943 361.772,137.967 356.111,127.103 351.034 C 124.121 349.641,120.505 348.079,119.065 347.563 C 114.689 345.993,110.351 343.828,104.860 340.472 C 101.981 338.714,98.128 336.374,96.297 335.273 C 86.161 329.179,78.782 323.003,64.269 308.465 L 50.593 294.766 43.163 283.551 C 33.064 268.309,29.291 260.887,22.366 242.654 C 20.071 236.610,15.727 218.670,15.300 213.467 C 15.106 211.108,14.528 207.027,14.016 204.399 C 12.595 197.111,12.594 173.908,14.015 167.050 C 14.526 164.580,15.130 161.016,15.355 159.130 C 15.883 154.721,20.478 136.210,22.192 131.589 C 29.758 111.193,36.487 98.942,50.047 80.870 C 56.331 72.495,76.864 52.213,83.684 47.644 C 86.430 45.804,90.603 42.837,92.957 41.050 C 95.385 39.206,99.049 36.880,101.422 35.675 C 103.724 34.506,106.991 32.721,108.681 31.709 C 110.371 30.697,113.484 29.138,115.597 28.244 C 117.710 27.350,121.206 25.772,123.364 24.738 C 125.523 23.704,129.811 21.989,132.892 20.926 C 135.973 19.863,140.060 18.342,141.974 17.545 C 144.029 16.690,147.170 15.774,149.643 15.308 C 151.947 14.875,156.783 13.792,160.389 12.901 C 164.823 11.807,168.500 11.150,171.742 10.873 C 174.379 10.648,177.652 10.198,179.016 9.873 C 185.438 8.344,214.194 8.198,220.187 9.664 " stroke="none" fill="#08070a" fill-rule="evenodd"></path><path id="path1" d="M178.777 0.543 C 178.261 0.827,175.540 1.116,171.861 1.276 C 166.696 1.500,165.600 1.654,164.486 2.313 C 163.590 2.843,161.858 3.242,158.995 3.578 C 156.694 3.848,154.302 4.333,153.678 4.656 C 153.054 4.978,151.319 5.477,149.823 5.764 C 146.768 6.351,128.072 12.598,122.617 14.856 C 120.664 15.664,117.636 16.882,115.888 17.562 C 111.469 19.281,104.522 22.799,100.039 25.588 C 97.961 26.880,95.000 28.661,93.458 29.545 C 73.633 40.915,48.295 65.936,32.519 89.720 C 22.784 104.397,10.061 134.854,8.237 147.850 C 8.006 149.495,7.493 151.946,7.096 153.296 C 6.700 154.646,6.132 157.951,5.834 160.641 C 5.485 163.791,5.049 165.977,4.609 166.784 C 3.556 168.715,3.556 205.117,4.609 207.048 C 5.049 207.855,5.485 210.041,5.834 213.191 C 6.132 215.881,6.700 219.186,7.096 220.536 C 7.493 221.886,8.004 224.293,8.233 225.886 C 8.462 227.478,9.317 230.923,10.134 233.541 C 10.951 236.160,12.028 239.914,12.527 241.884 C 13.026 243.853,14.085 247.053,14.880 248.994 C 15.675 250.935,16.882 253.953,17.563 255.701 C 20.284 262.692,27.849 277.055,32.534 284.126 C 48.258 307.859,73.634 332.917,93.458 344.287 C 95.000 345.171,97.961 346.952,100.039 348.244 C 104.532 351.039,111.481 354.557,115.888 356.267 C 117.636 356.945,120.635 358.156,122.552 358.957 C 127.594 361.064,146.536 367.392,149.856 368.077 C 151.411 368.399,153.162 368.909,153.747 369.212 C 154.333 369.515,156.694 369.983,158.995 370.253 C 161.850 370.588,163.593 370.989,164.486 371.516 C 165.598 372.172,166.691 372.326,171.776 372.540 C 175.631 372.702,178.143 372.977,178.842 373.312 C 180.200 373.962,180.561 373.966,180.561 373.329 C 180.561 371.940,179.267 371.557,173.302 371.182 C 167.595 370.823,165.607 370.459,165.607 369.774 C 165.607 369.293,164.071 368.723,160.000 367.695 C 149.658 365.081,131.604 359.272,122.719 355.698 C 119.887 354.559,116.645 353.268,115.514 352.829 C 108.644 350.163,91.350 339.835,81.583 332.566 C 72.353 325.697,51.778 305.422,45.121 296.636 C 33.054 280.708,25.238 266.963,18.520 249.854 C 17.378 246.946,15.952 242.741,15.351 240.508 C 14.750 238.275,13.678 234.598,12.970 232.336 C 12.262 230.075,11.478 226.963,11.229 225.421 C 10.980 223.879,10.387 220.850,9.911 218.692 C 9.436 216.533,8.933 213.677,8.795 212.347 C 8.656 211.016,8.050 208.018,7.449 205.686 L 6.355 201.445 6.355 186.976 L 6.355 172.507 7.462 168.215 C 8.071 165.855,8.734 162.472,8.936 160.698 C 9.137 158.925,9.556 156.486,9.866 155.279 C 10.176 154.072,10.705 151.402,11.042 149.346 C 11.659 145.581,18.060 125.293,20.831 118.318 C 29.060 97.601,41.705 79.349,61.647 59.400 C 76.000 45.043,82.766 39.438,93.084 33.359 C 95.037 32.208,98.570 30.057,100.935 28.579 C 106.044 25.385,112.547 22.073,117.196 20.295 C 119.047 19.588,122.579 18.195,125.047 17.201 C 132.552 14.177,151.154 8.275,160.374 5.993 C 164.139 5.061,165.607 4.518,165.607 4.058 C 165.607 3.372,167.595 3.009,173.302 2.650 C 177.928 2.359,179.298 2.149,179.855 1.644 C 181.286 0.350,180.527 -0.425,178.777 0.543 M219.439 0.503 C 219.439 1.892,220.733 2.275,226.698 2.650 C 232.418 3.010,234.393 3.372,234.393 4.063 C 234.393 4.574,237.306 5.466,251.118 9.181 C 266.220 13.244,288.709 22.258,297.757 27.876 C 299.813 29.152,303.178 31.161,305.234 32.340 C 311.313 35.826,323.528 44.764,328.031 49.022 C 329.474 50.386,331.997 52.575,333.638 53.887 C 335.279 55.200,337.718 57.614,339.058 59.254 C 340.399 60.893,343.609 64.423,346.192 67.098 C 348.776 69.774,351.880 73.308,353.092 74.953 C 354.303 76.598,356.295 79.206,357.518 80.748 C 365.276 90.530,375.914 109.441,380.756 122.056 C 381.703 124.523,383.160 128.308,383.995 130.467 C 385.609 134.643,387.963 143.668,388.967 149.533 C 389.301 151.486,389.827 154.072,390.136 155.279 C 390.445 156.486,390.862 158.920,391.063 160.688 C 391.264 162.456,391.934 165.873,392.553 168.280 L 393.677 172.656 393.567 187.730 C 393.458 202.778,393.456 202.809,392.469 206.168 C 391.926 208.019,391.222 211.383,390.906 213.645 C 388.718 229.299,385.122 241.908,378.432 257.383 C 376.842 261.059,371.069 272.473,369.071 275.888 C 360.625 290.324,355.931 296.725,347.284 305.600 C 343.874 309.099,340.130 313.168,338.963 314.641 C 337.796 316.115,335.533 318.376,333.935 319.667 C 332.336 320.957,329.093 323.877,326.729 326.154 C 316.604 335.905,289.702 351.746,273.793 357.324 C 269.702 358.759,265.339 360.361,264.096 360.884 C 262.854 361.408,258.816 362.617,255.124 363.571 C 251.432 364.525,247.150 365.696,245.607 366.173 C 244.065 366.651,241.296 367.411,239.454 367.864 C 235.784 368.765,234.393 369.294,234.393 369.789 C 234.393 370.401,232.631 370.777,227.843 371.187 C 223.012 371.599,221.682 372.062,221.682 373.329 C 221.682 373.967,222.045 373.962,223.401 373.308 C 224.046 372.996,226.454 372.680,229.346 372.527 C 233.247 372.322,234.464 372.121,235.514 371.508 C 236.397 370.993,238.184 370.585,241.005 370.253 C 243.306 369.983,245.673 369.512,246.266 369.205 C 246.858 368.899,248.761 368.365,250.494 368.018 C 252.227 367.672,254.150 367.182,254.766 366.930 C 255.383 366.678,257.234 366.173,258.879 365.809 C 260.523 365.444,264.308 364.177,267.290 362.993 C 270.271 361.809,274.600 360.217,276.910 359.456 C 281.813 357.841,294.227 351.813,299.835 348.323 C 301.982 346.988,305.000 345.170,306.542 344.285 C 314.017 339.992,323.755 333.053,328.120 328.909 C 330.542 326.610,333.988 323.574,335.778 322.162 C 337.834 320.540,340.030 318.326,341.741 316.152 C 343.229 314.259,347.084 310.019,350.307 306.729 C 356.290 300.621,362.673 292.605,365.932 287.103 C 366.846 285.561,368.650 282.594,369.942 280.511 C 372.716 276.036,380.671 260.239,382.437 255.701 C 383.117 253.953,384.464 250.589,385.432 248.224 C 388.291 241.237,390.718 232.577,391.929 225.047 C 392.243 223.093,392.755 220.738,393.067 219.813 C 393.379 218.888,393.876 215.919,394.171 213.216 C 394.519 210.030,394.948 207.860,395.391 207.048 C 396.444 205.117,396.444 168.715,395.391 166.784 C 394.948 165.972,394.519 163.802,394.171 160.616 C 393.876 157.913,393.379 154.944,393.067 154.019 C 392.755 153.093,392.246 150.770,391.937 148.856 C 390.705 141.232,387.988 131.620,385.156 124.860 C 384.338 122.907,383.113 119.879,382.434 118.131 C 376.140 101.919,361.000 78.130,349.365 66.168 C 346.865 63.598,343.503 59.851,341.894 57.841 C 340.077 55.571,337.748 53.221,335.746 51.638 C 333.974 50.237,331.262 47.915,329.720 46.478 C 324.729 41.829,312.929 33.208,306.542 29.545 C 305.000 28.661,302.039 26.880,299.961 25.588 C 295.478 22.799,288.531 19.281,284.112 17.562 C 282.364 16.882,279.336 15.664,277.383 14.856 C 271.928 12.598,253.232 6.351,250.177 5.764 C 248.681 5.477,246.946 4.978,246.322 4.656 C 245.698 4.333,243.306 3.848,241.005 3.578 C 238.150 3.243,236.407 2.842,235.514 2.316 C 234.402 1.659,233.309 1.506,228.224 1.292 C 224.369 1.129,221.857 0.855,221.158 0.520 C 219.800 -0.130,219.439 -0.134,219.439 0.503 M184.112 8.972 C 182.673 9.143,180.380 9.548,179.016 9.873 C 177.652 10.198,174.379 10.648,171.742 10.873 C 168.500 11.150,164.823 11.807,160.389 12.901 C 156.783 13.792,151.947 14.875,149.643 15.308 C 147.170 15.774,144.029 16.690,141.974 17.545 C 140.060 18.342,135.973 19.863,132.892 20.926 C 129.811 21.989,125.523 23.704,123.364 24.738 C 121.206 25.772,117.710 27.350,115.597 28.244 C 113.484 29.138,110.371 30.697,108.681 31.709 C 106.991 32.721,103.724 34.506,101.422 35.675 C 99.049 36.880,95.385 39.206,92.957 41.050 C 90.603 42.837,86.430 45.804,83.684 47.644 C 76.864 52.213,56.331 72.495,50.047 80.870 C 36.487 98.942,29.758 111.193,22.192 131.589 C 20.478 136.210,15.883 154.721,15.355 159.130 C 15.130 161.016,14.526 164.580,14.015 167.050 C 12.594 173.908,12.595 197.111,14.016 204.399 C 14.528 207.027,15.106 211.108,15.300 213.467 C 15.727 218.670,20.071 236.610,22.366 242.654 C 29.291 260.887,33.064 268.309,43.163 283.551 L 50.593 294.766 64.269 308.465 C 78.782 323.003,86.161 329.179,96.297 335.273 C 98.128 336.374,101.981 338.714,104.860 340.472 C 110.351 343.828,114.689 345.993,119.065 347.563 C 120.505 348.079,124.121 349.641,127.103 351.034 C 137.967 356.111,158.943 361.772,172.150 363.191 C 173.383 363.324,175.822 363.794,177.570 364.235 C 182.564 365.497,214.447 365.464,219.813 364.192 C 221.766 363.729,224.879 363.258,226.729 363.146 C 238.251 362.448,263.230 355.882,272.959 350.995 C 275.084 349.928,278.557 348.402,280.678 347.604 C 287.911 344.884,288.173 344.743,303.855 335.173 C 308.504 332.336,321.268 322.785,324.668 319.599 C 326.110 318.248,328.720 315.984,330.467 314.569 C 332.215 313.154,333.813 311.802,334.019 311.566 C 334.224 311.329,335.680 309.556,337.254 307.624 C 338.827 305.693,341.991 302.203,344.284 299.869 C 348.611 295.465,356.300 285.556,358.956 280.960 C 359.796 279.507,361.479 276.720,362.696 274.766 C 372.289 259.363,382.882 230.393,384.660 214.694 C 384.868 212.856,385.461 209.314,385.977 206.822 C 387.414 199.885,387.420 173.973,385.985 167.050 C 385.474 164.580,384.871 161.016,384.647 159.130 C 384.135 154.831,379.526 136.334,377.783 131.589 C 371.596 114.737,366.829 105.332,356.849 90.280 L 349.412 79.065 335.734 65.390 C 319.260 48.919,313.858 44.587,297.757 34.932 C 287.653 28.873,286.908 28.524,269.879 21.880 C 267.088 20.791,264.312 19.647,263.711 19.337 C 260.343 17.604,247.699 14.025,241.661 13.096 C 240.234 12.877,237.636 12.371,235.888 11.973 C 234.140 11.574,230.607 11.067,228.037 10.845 C 225.467 10.623,221.935 10.092,220.187 9.664 C 216.694 8.810,189.834 8.295,184.112 8.972 M219.554 12.659 C 221.364 13.104,224.729 13.624,227.030 13.813 C 246.569 15.417,276.443 25.756,296.799 37.959 C 312.358 47.286,317.512 51.450,333.874 67.913 L 347.187 81.308 354.623 92.523 C 368.990 114.189,379.513 140.482,381.703 160.187 C 381.931 162.243,382.483 165.439,382.928 167.290 C 384.185 172.511,384.169 201.344,382.905 206.729 C 382.447 208.682,381.895 211.849,381.679 213.767 C 379.977 228.871,370.029 256.732,361.100 271.402 C 360.036 273.150,358.125 276.346,356.853 278.505 C 353.159 284.776,346.063 293.899,341.929 297.693 C 339.876 299.577,336.959 302.814,335.130 305.236 C 332.766 308.368,331.026 310.206,328.487 312.252 C 326.595 313.777,323.785 316.197,322.243 317.631 C 317.334 322.194,306.703 329.979,300.000 333.919 C 297.533 335.369,294.212 337.378,292.621 338.382 C 288.785 340.803,284.718 342.808,279.562 344.820 C 277.233 345.729,273.532 347.327,271.338 348.371 C 261.035 353.274,239.169 359.022,227.031 360.019 C 224.730 360.208,221.281 360.743,219.367 361.208 C 214.081 362.493,183.755 362.512,178.505 361.235 C 176.654 360.784,173.626 360.230,171.776 360.002 C 158.140 358.326,138.378 352.994,128.662 348.371 C 126.468 347.327,122.767 345.729,120.438 344.820 C 115.282 342.808,111.215 340.803,107.379 338.382 C 105.788 337.378,102.467 335.369,100.000 333.919 C 88.340 327.065,81.544 321.450,66.122 305.927 L 52.805 292.523 45.373 281.308 C 30.483 258.843,19.911 231.941,18.290 212.396 C 18.074 209.793,17.529 206.150,17.079 204.299 C 15.834 199.174,15.828 172.454,17.072 167.290 C 17.517 165.439,18.069 162.243,18.297 160.187 C 20.249 142.631,31.085 114.153,42.264 97.204 C 54.185 79.131,73.994 57.788,86.977 49.030 C 90.094 46.927,93.793 44.292,95.195 43.174 C 96.597 42.057,99.345 40.275,101.302 39.216 C 103.259 38.156,106.880 36.146,109.348 34.750 C 111.817 33.353,114.761 31.846,115.890 31.402 C 117.020 30.957,120.269 29.507,123.112 28.180 C 125.954 26.853,130.664 24.951,133.579 23.953 C 136.494 22.956,140.561 21.459,142.617 20.627 C 144.673 19.795,148.206 18.751,150.467 18.307 C 152.729 17.862,157.578 16.761,161.243 15.860 C 165.773 14.746,169.385 14.101,172.526 13.846 C 175.067 13.640,178.630 13.144,180.442 12.744 C 185.416 11.647,184.943 11.669,201.121 11.761 C 215.226 11.842,216.487 11.903,219.554 12.659 M129.314 50.849 C 77.166 56.727,45.946 110.685,67.992 156.836 C 76.967 175.625,92.794 188.037,114.206 193.080 C 141.127 199.421,167.746 193.774,184.547 178.159 C 189.049 173.974,190.356 170.509,188.232 168.385 C 186.757 166.910,184.387 167.874,180.374 171.580 C 162.594 188.000,139.347 191.678,120.955 180.980 C 94.164 165.398,90.101 96.645,114.534 72.303 C 136.958 49.962,169.016 56.860,184.961 87.457 C 188.259 93.787,189.016 94.534,191.036 93.454 C 192.474 92.684,192.648 90.883,192.802 75.233 C 193.015 53.535,192.382 51.920,185.425 56.417 C 181.054 59.242,178.261 59.326,170.280 56.875 C 153.306 51.661,139.771 49.670,129.314 50.849 M260.825 158.972 C 259.052 160.648,255.609 168.015,242.607 197.944 C 239.992 203.965,231.864 222.297,220.562 247.664 C 219.096 250.953,216.790 256.168,215.436 259.252 C 207.790 276.679,203.159 284.006,196.387 289.395 C 189.505 294.871,191.882 296.564,206.729 296.759 C 223.489 296.980,229.655 295.563,225.353 292.479 C 215.345 285.303,214.605 280.997,220.940 266.795 C 225.298 257.025,224.210 257.383,249.533 257.383 C 274.076 257.383,273.553 257.239,277.264 265.021 C 285.227 281.720,285.741 285.824,280.569 291.427 C 276.042 296.331,277.494 296.636,305.421 296.636 C 327.952 296.636,329.473 296.526,330.670 294.817 C 331.593 293.500,331.333 293.050,327.525 289.357 C 321.768 283.774,318.300 277.725,310.697 260.000 C 307.609 252.800,304.864 246.473,298.211 231.215 C 296.866 228.131,293.543 220.477,290.826 214.206 C 269.044 163.932,268.985 163.797,267.379 161.029 C 265.384 157.588,263.059 156.859,260.825 158.972 M252.466 209.294 C 253.813 210.543,255.167 213.239,259.253 222.804 C 261.053 227.019,263.438 232.553,264.553 235.101 C 270.029 247.617,269.144 248.411,249.720 248.411 C 228.769 248.411,228.885 248.611,238.050 228.221 C 247.589 206.998,248.582 205.695,252.466 209.294 " stroke="none" fill="#8c0614" fill-rule="evenodd"></path><path id="path2" d="M0.000 186.916 L 0.000 373.832 89.794 373.832 C 160.215 373.832,179.491 373.734,179.135 373.378 C 178.842 373.085,176.389 372.808,172.238 372.598 C 166.803 372.324,165.590 372.153,164.486 371.509 C 163.603 370.993,161.818 370.585,158.995 370.253 C 156.694 369.983,154.333 369.515,153.747 369.212 C 153.162 368.909,151.411 368.399,149.856 368.077 C 146.536 367.392,127.594 361.064,122.552 358.957 C 120.635 358.156,117.636 356.945,115.888 356.267 C 111.481 354.557,104.532 351.039,100.039 348.244 C 97.961 346.952,95.000 345.171,93.458 344.287 C 73.634 332.917,48.258 307.859,32.534 284.126 C 27.849 277.055,20.284 262.692,17.563 255.701 C 16.882 253.953,15.675 250.935,14.880 248.994 C 14.085 247.053,13.026 243.853,12.527 241.884 C 12.028 239.914,10.951 236.160,10.134 233.541 C 9.317 230.923,8.462 227.478,8.233 225.886 C 8.004 224.293,7.493 221.886,7.096 220.536 C 6.700 219.186,6.132 215.881,5.834 213.191 C 5.485 210.041,5.049 207.855,4.609 207.048 C 3.556 205.117,3.556 168.715,4.609 166.784 C 5.049 165.977,5.485 163.791,5.834 160.641 C 6.132 157.951,6.700 154.646,7.096 153.296 C 7.493 151.946,8.006 149.495,8.237 147.850 C 10.061 134.854,22.784 104.397,32.519 89.720 C 48.295 65.936,73.633 40.915,93.458 29.545 C 95.000 28.661,97.961 26.880,100.039 25.588 C 104.522 22.799,111.469 19.281,115.888 17.562 C 117.636 16.882,120.664 15.664,122.617 14.856 C 128.072 12.598,146.768 6.351,149.823 5.764 C 151.319 5.477,153.054 4.978,153.678 4.656 C 154.302 4.333,156.694 3.848,158.995 3.578 C 161.818 3.247,163.603 2.839,164.486 2.323 C 165.590 1.679,166.803 1.508,172.238 1.233 C 176.389 1.024,178.842 0.746,179.135 0.454 C 179.491 0.098,160.215 0.000,89.794 0.000 L 0.000 0.000 0.000 186.916 M220.865 0.454 C 221.158 0.746,223.611 1.024,227.762 1.233 C 233.197 1.508,234.410 1.679,235.514 2.323 C 236.397 2.839,238.182 3.247,241.005 3.578 C 243.306 3.848,245.698 4.333,246.322 4.656 C 246.946 4.978,248.681 5.477,250.177 5.764 C 253.232 6.351,271.928 12.598,277.383 14.856 C 279.336 15.664,282.364 16.882,284.112 17.562 C 288.531 19.281,295.478 22.799,299.961 25.588 C 302.039 26.880,305.000 28.661,306.542 29.545 C 312.929 33.208,324.729 41.829,329.720 46.478 C 331.262 47.915,333.974 50.237,335.746 51.638 C 337.748 53.221,340.077 55.571,341.894 57.841 C 343.503 59.851,346.865 63.598,349.365 66.168 C 361.000 78.130,376.140 101.919,382.434 118.131 C 383.113 119.879,384.338 122.907,385.156 124.860 C 387.988 131.620,390.705 141.232,391.937 148.856 C 392.246 150.770,392.755 153.093,393.067 154.019 C 393.379 154.944,393.876 157.913,394.171 160.616 C 394.519 163.802,394.948 165.972,395.391 166.784 C 396.444 168.715,396.444 205.117,395.391 207.048 C 394.948 207.860,394.519 210.030,394.171 213.216 C 393.876 215.919,393.379 218.888,393.067 219.813 C 392.755 220.738,392.243 223.093,391.929 225.047 C 390.718 232.577,388.291 241.237,385.432 248.224 C 384.464 250.589,383.117 253.953,382.437 255.701 C 380.671 260.239,372.716 276.036,369.942 280.511 C 368.650 282.594,366.846 285.561,365.932 287.103 C 362.673 292.605,356.290 300.621,350.307 306.729 C 347.084 310.019,343.229 314.259,341.741 316.152 C 340.030 318.326,337.834 320.540,335.778 322.162 C 333.988 323.574,330.542 326.610,328.120 328.909 C 323.755 333.053,314.017 339.992,306.542 344.285 C 305.000 345.170,301.982 346.988,299.835 348.323 C 294.227 351.813,281.813 357.841,276.910 359.456 C 274.600 360.217,270.271 361.809,267.290 362.993 C 264.308 364.177,260.523 365.444,258.879 365.809 C 257.234 366.173,255.383 366.678,254.766 366.930 C 254.150 367.182,252.227 367.672,250.494 368.018 C 248.761 368.365,246.858 368.899,246.266 369.205 C 245.673 369.512,243.291 369.983,240.974 370.253 C 238.146 370.582,236.406 370.974,235.686 371.446 C 234.851 371.994,233.387 372.238,229.074 372.550 C 225.849 372.783,223.351 373.135,223.095 373.391 C 222.757 373.729,243.267 373.832,311.327 373.832 L 400.000 373.832 400.000 186.916 L 400.000 0.000 310.206 0.000 C 239.785 0.000,220.509 0.098,220.865 0.454 M184.860 11.846 C 184.243 11.940,182.255 12.344,180.442 12.744 C 178.630 13.144,175.067 13.640,172.526 13.846 C 169.385 14.101,165.773 14.746,161.243 15.860 C 157.578 16.761,152.729 17.862,150.467 18.307 C 148.206 18.751,144.673 19.795,142.617 20.627 C 140.561 21.459,136.494 22.956,133.579 23.953 C 130.664 24.951,125.954 26.853,123.112 28.180 C 120.269 29.507,117.020 30.957,115.890 31.402 C 114.761 31.846,111.817 33.353,109.348 34.750 C 106.880 36.146,103.259 38.156,101.302 39.216 C 99.345 40.275,96.597 42.057,95.195 43.174 C 93.793 44.292,90.094 46.927,86.977 49.030 C 73.994 57.788,54.185 79.131,42.264 97.204 C 31.085 114.153,20.249 142.631,18.297 160.187 C 18.069 162.243,17.517 165.439,17.072 167.290 C 15.828 172.454,15.834 199.174,17.079 204.299 C 17.529 206.150,18.074 209.793,18.290 212.396 C 19.911 231.941,30.483 258.843,45.373 281.308 L 52.805 292.523 66.122 305.927 C 81.544 321.450,88.340 327.065,100.000 333.919 C 102.467 335.369,105.788 337.378,107.379 338.382 C 111.215 340.803,115.282 342.808,120.438 344.820 C 122.767 345.729,126.468 347.327,128.662 348.371 C 138.378 352.994,158.140 358.326,171.776 360.002 C 173.626 360.230,176.654 360.784,178.505 361.235 C 183.755 362.512,214.081 362.493,219.367 361.208 C 221.281 360.743,224.730 360.208,227.031 360.019 C 239.169 359.022,261.035 353.274,271.338 348.371 C 273.532 347.327,277.233 345.729,279.562 344.820 C 284.718 342.808,288.785 340.803,292.621 338.382 C 294.212 337.378,297.533 335.369,300.000 333.919 C 306.703 329.979,317.334 322.194,322.243 317.631 C 323.785 316.197,326.595 313.777,328.487 312.252 C 331.026 310.206,332.766 308.368,335.130 305.236 C 336.959 302.814,339.876 299.577,341.929 297.693 C 346.063 293.899,353.159 284.776,356.853 278.505 C 358.125 276.346,360.036 273.150,361.100 271.402 C 370.029 256.732,379.977 228.871,381.679 213.767 C 381.895 211.849,382.447 208.682,382.905 206.729 C 384.169 201.344,384.185 172.511,382.928 167.290 C 382.483 165.439,381.931 162.243,381.703 160.187 C 379.513 140.482,368.990 114.189,354.623 92.523 L 347.187 81.308 333.874 67.913 C 317.512 51.450,312.358 47.286,296.799 37.959 C 285.024 30.900,263.073 21.492,251.366 18.486 C 243.436 16.450,231.697 14.196,227.030 13.813 C 224.729 13.624,221.364 13.104,219.554 12.659 C 216.376 11.876,188.890 11.232,184.860 11.846 M146.542 51.251 C 153.916 52.332,160.794 53.961,170.280 56.875 C 178.261 59.326,181.054 59.242,185.425 56.417 C 192.382 51.920,193.015 53.535,192.802 75.233 C 192.648 90.883,192.474 92.684,191.036 93.454 C 189.016 94.534,188.259 93.787,184.961 87.457 C 172.865 64.246,153.040 54.591,131.776 61.556 C 109.859 68.734,98.692 89.372,98.692 122.694 C 98.692 164.813,114.020 186.591,143.738 186.694 C 158.002 186.743,168.762 182.304,180.374 171.580 C 185.535 166.814,189.159 166.453,189.159 170.706 C 189.159 176.411,175.132 187.114,161.815 191.570 C 137.108 199.838,105.994 195.170,86.612 180.288 C 62.503 161.776,54.085 126.290,66.812 96.822 C 80.353 65.470,113.661 46.432,146.542 51.251 M265.048 158.318 C 266.241 158.935,267.932 161.621,269.874 165.981 C 271.073 168.676,280.452 190.262,290.826 214.206 C 293.543 220.477,296.866 228.131,298.211 231.215 C 304.864 246.473,307.609 252.800,310.697 260.000 C 318.300 277.725,321.768 283.774,327.525 289.357 C 331.333 293.050,331.593 293.500,330.670 294.817 C 329.473 296.526,327.952 296.636,305.421 296.636 C 277.494 296.636,276.042 296.331,280.569 291.427 C 285.741 285.824,285.227 281.720,277.264 265.021 C 273.553 257.239,274.076 257.383,249.533 257.383 C 224.210 257.383,225.298 257.025,220.940 266.795 C 214.605 280.997,215.345 285.303,225.353 292.479 C 229.655 295.563,223.489 296.980,206.729 296.759 C 191.882 296.564,189.505 294.871,196.387 289.395 C 203.159 284.006,207.790 276.679,215.436 259.252 C 216.790 256.168,219.096 250.953,220.562 247.664 C 231.864 222.297,239.992 203.965,242.607 197.944 C 247.993 185.545,257.246 164.756,258.414 162.430 C 260.459 158.357,262.580 157.042,265.048 158.318 M248.746 208.388 C 246.718 209.266,245.832 210.908,238.050 228.221 C 228.885 248.611,228.769 248.411,249.720 248.411 C 269.144 248.411,270.029 247.617,264.553 235.101 C 263.438 232.553,261.053 227.019,259.253 222.804 C 253.302 208.872,251.942 207.005,248.746 208.388 " stroke="none" fill="#fcfcfb" fill-rule="evenodd"></path></g></svg>